<svg height="512" width="512" xmlns="http://www.w3.org/2000/svg"><path d="m467.6877136 171.1025085c-4.0116577 10.7409668-14.0951843 10.7410278-18.1068115.0001068-4.0115967-10.740921 1.0301819-24.2400208 9.0534668-24.2400818 8.0232544-.0000457 13.0650024 13.4990082 9.0533447 24.239975zm20.9677429-30.3743438c-7.3264465.0000305-11.9303589 12.9281464-8.2671509 23.2147522 3.663208 10.2865906 12.8710022 10.2865295 16.5342407-.0001068 3.6632386-10.2866517-.9406432-23.2146912-8.2670898-23.2146454zm6.2303467 46.7894745c7.4603577-7.6156921 11.9989319-19.7892303 11.9623413-34.7390137-.092804-37.9211121-27.6644592-54.2151566-45.3240356-34.1164169-13.1878357-8.5847549-28.3920593-1.9633102-35.5212402 15.8677139-11.3334656 9.8932343-13.2916565 13.8100281-18.6290283 48.2851257-7.4418335 14.8829193-11.0715332 32.198349-36.9693604 31.2902374 10.644043-13.736084-7.5495911-31.7024078-26.1695557-24.2424622-4.6660156-12.2580872-40.1668396-33.8788757-60.4598694-41.6676025-37.8046875-14.5096893-82.9765167-12.2982178-115.6649017-.9545135-45.1325073 15.6620178-73.758194 55.7399445-84.1839447 96.5545044l-58.359272-20.4806213c-24.8469469-10.3864289-33.2696672-1.2805634-17.7295594 14.3472595 42.4073906 34.6933746 57.0397835 36.9756317 66.2219467 47.8017731-31.0636978 33.3400574-30.1496925 43.658844-21.3981781 74.6867371 5.9064445 20.9419556 61.0297165 32.4732666 71.4456406 26.6596375 7.7187271-4.3081055 15.674614-13.5693359 15.7111893-15.6695251.2096252-12.1231689-25.9418716-35.1539001-11.0542297-55.714386 10.4843445 8.3444519 42.4341278 19.0840759 55.1425476 20.8884888-6.3437958 10.5067749-7.2172852 23.3827209-5.2358856 33.5622559 2.0514069 19.6960144 30.8800201 26.9263 55.4339752 30.9661865 23.2777252-1.8626404 45.4597321 10.0057068 61.9319305-15.621521 2.7923584-16.2692871-.0582275-37.2277527-9.2293701-50.0986023 6.6320801 2.083252 12.8673096 1.0583496 19.1418762-1.3556824.7004395 24.3695068 13.0875244 45.7299194 33.036438 45.5611877 27.9629822 2.3271179 43.0197449-1.5090332 56.1682434-23.163269 7.5617981-22.2677307-11.1961975-47.4835815-38.4229431-71.2505493 47.5555725 3.0011902 40.9974365-36.9823303 71.9879761-38.0654602 27.8041077-.414917 38.1464844-2.4922791 42.7932129-10.7372437-16.9885864-2.0002747-27.7270203-9.2572784-36.0600586-24.0548553-1.9723511-3.8381195 3.4200439-6.8212433 5.6130371-3.158905 6.8904724 12.2329254 15.9204102 20.5392303 37.5797424 21.3163605 18.7788696.3897552 22.2653809-.8384857 31.8282471-16.3892212 4.9896873-8.1623538-2.7774025-14.8754428-15.5869118-26.3076174zm-156.4542846 59.4321594c-6.9903564 34.4511108-26.6938477 81.0226746-45.3323059 76.4243164-37.872345-10.3954773-74.7473145-9.9549866-99.2509155 1.1389771-17.8601379-.2733459-34.3295898-11.6162415-51.6973267-15.6938782-10.621994-4.7824402-30.1544037-32.9735413-58.9024048-32.45755-16.4336624-16.1080017-17.808609-19.2704468.3838577-19.23349 33.5587311 8.3535156 43.0858154 13.7620544 71.01577 34.2194519 39.9111633 22.4463196 71.5644073-1.1731873 96.5356293-3.0047302 21.9247894-1.9979248 36.1163177 15.6793213 50.5363312 9.1558228 11.6539917-5.1536865 19.0317383-23.210083 26.8381653-53.5851135 11.3287659-47.811615 25.1950073-46.4236908 32.1932373-39.0774078-1.8130799 6.3162535-15.1716004 8.3849638-22.3200379 42.1136015zm129.546112-71.3874207c-7.9692383 23.5970612-27.9995728 23.5970612-35.9684143.0003815-7.9688721-23.5970612 2.0462952-53.2535629 17.9840088-53.253952 15.9381103 0 25.9532776 29.6564941 17.9844055 53.2535705zm3.4114075 10.300293c10.5594788-19.6755676 8.7460022-46.6309509-4.2554016-62.1793137 3.2737427-3.9454956 7.2652588-6.3811493 11.7570496-6.3811493 15.8606262 0 25.8273926 29.656105 17.8970947 53.2535629-5.4172058 16.1186524-16.4317017 21.209015-25.3987427 15.3069001z"/></svg>